<svg xmlns="http://www.w3.org/2000/svg" viewBox="0 0 64 64">
  <defs>
    <linearGradient id="bg" x1="8" y1="4" x2="58" y2="60" gradientUnits="userSpaceOnUse">
      <stop stop-color="#7c3aed"/>
      <stop offset="1" stop-color="#4f46e5"/>
    </linearGradient>
  </defs>
  <rect width="64" height="64" rx="18" fill="url(#bg)"/>
  <path d="M18 24c0-4.4 3.6-8 8-8h12c4.4 0 8 3.6 8 8v9c0 4.4-3.6 8-8 8H28.5l-8.3 6.1c-1.3 1-3.2.1-3.2-1.6V41c-3.4-.5-6-3.8-6-7.6V29h7v-5z" fill="#fff" opacity=".95"/>
  <path d="M18 29h-7" stroke="#a78bfa" stroke-width="4" stroke-linecap="round"/>
  <path d="M46 29h7" stroke="#a78bfa" stroke-width="4" stroke-linecap="round"/>
  <circle cx="27" cy="29" r="3.3" fill="#7c3aed"/>
  <circle cx="37" cy="29" r="3.3" fill="#7c3aed"/>
  <path d="M27 12h10" stroke="#fff" stroke-width="4" stroke-linecap="round"/>
  <path d="M32 12V8" stroke="#fff" stroke-width="4" stroke-linecap="round"/>
</svg>
